<?xml version="1.0" encoding="UTF-8"?>
<svg xmlns="http://www.w3.org/2000/svg" xmlns:xlink="http://www.w3.org/1999/xlink" width="219" height="199" viewBox="0 0 109.61 99.632">
<defs>
<g>
<g id="glyph-0-0">
<path d="M 0.484375 0.09375 C 1.03125 -0.078125 1.265625 -0.1875 1.53125 -0.421875 C 2.015625 -0.828125 2.265625 -1.40625 2.265625 -2.078125 C 2.265625 -2.90625 1.875 -3.421875 1.21875 -3.421875 C 0.578125 -3.421875 0.09375 -2.921875 0.09375 -2.265625 C 0.09375 -1.6875 0.46875 -1.265625 0.984375 -1.265625 C 1.15625 -1.265625 1.34375 -1.328125 1.4375 -1.40625 L 1.78125 -1.6875 C 1.75 -0.859375 1.203125 -0.25 0.3125 -0.03125 L 0.3125 0.015625 Z M 1.1875 -3.265625 C 1.421875 -3.265625 1.578125 -3.171875 1.6875 -2.96875 C 1.78125 -2.8125 1.84375 -2.5625 1.84375 -2.34375 C 1.84375 -1.890625 1.578125 -1.578125 1.1875 -1.578125 C 0.796875 -1.578125 0.53125 -1.921875 0.53125 -2.4375 C 0.53125 -2.953125 0.78125 -3.265625 1.1875 -3.265625 Z M 1.1875 -3.265625 "/>
</g>
<g id="glyph-0-1">
<path d="M 1.984375 -1.546875 C 1.984375 -1.78125 2 -1.984375 2.046875 -2.15625 C 1.859375 -2.28125 1.671875 -2.328125 1.46875 -2.328125 C 1.234375 -2.328125 0.953125 -2.234375 0.65625 -2.046875 C 0.3125 -1.828125 0.125 -1.484375 0.125 -1.046875 C 0.125 -0.375 0.59375 0.09375 1.265625 0.09375 C 1.53125 0.09375 1.890625 0 1.953125 -0.0625 L 2.046875 -0.234375 L 2 -0.296875 C 1.8125 -0.203125 1.65625 -0.15625 1.484375 -0.15625 C 0.921875 -0.15625 0.5625 -0.59375 0.5625 -1.234375 C 0.5625 -1.78125 0.8125 -2.078125 1.265625 -2.078125 C 1.484375 -2.078125 1.71875 -1.96875 1.8125 -1.84375 L 1.84375 -1.546875 Z M 1.984375 -1.546875 "/>
</g>
<g id="glyph-0-2">
<path d="M 0.09375 -1.984375 L 0.265625 -1.984375 C 0.46875 -1.984375 0.484375 -1.953125 0.484375 -1.625 L 0.484375 -0.5 C 0.484375 -0.1875 0.484375 -0.15625 0.3125 -0.15625 L 0.078125 -0.140625 L 0.078125 0.015625 C 0.5625 0 0.578125 0 0.703125 0 C 0.84375 0 0.984375 0 1.296875 0.015625 L 1.296875 -0.140625 L 1.09375 -0.15625 C 0.921875 -0.15625 0.90625 -0.1875 0.90625 -0.5 L 0.90625 -1.5625 C 0.90625 -1.78125 1.234375 -2.03125 1.53125 -2.03125 C 1.796875 -2.03125 1.984375 -1.78125 1.984375 -1.390625 L 1.984375 -0.5 C 1.984375 -0.1875 1.96875 -0.15625 1.796875 -0.15625 L 1.578125 -0.140625 L 1.578125 0.015625 C 2.078125 0 2.078125 0 2.203125 0 C 2.328125 0 2.328125 0 2.8125 0.015625 L 2.8125 -0.140625 L 2.59375 -0.15625 C 2.421875 -0.15625 2.40625 -0.1875 2.40625 -0.5 L 2.40625 -1.5625 C 2.40625 -1.78125 2.734375 -2.03125 3.03125 -2.03125 C 3.296875 -2.03125 3.484375 -1.78125 3.484375 -1.390625 L 3.484375 0.015625 C 3.78125 0 3.796875 0 3.875 0 C 3.9375 0 3.9375 0 4.3125 0.015625 L 4.3125 -0.140625 L 4.078125 -0.15625 C 3.921875 -0.15625 3.90625 -0.1875 3.90625 -0.5 L 3.90625 -1.53125 C 3.90625 -2.015625 3.609375 -2.328125 3.15625 -2.328125 C 2.984375 -2.328125 2.84375 -2.28125 2.75 -2.203125 L 2.375 -1.875 C 2.21875 -2.203125 2 -2.328125 1.671875 -2.328125 C 1.484375 -2.328125 1.34375 -2.28125 1.25 -2.203125 L 0.90625 -1.890625 L 0.90625 -2.3125 L 0.859375 -2.328125 C 0.609375 -2.21875 0.359375 -2.15625 0.09375 -2.125 Z M 0.09375 -1.984375 "/>
</g>
<g id="glyph-0-3">
<path d="M 0.21875 -2.46875 L 0.375 -2.46875 L 0.453125 -2.75 C 0.515625 -2.921875 0.828125 -3.09375 1.078125 -3.09375 C 1.40625 -3.09375 1.671875 -2.828125 1.671875 -2.515625 C 1.671875 -2.140625 1.375 -1.828125 1.03125 -1.828125 C 0.984375 -1.828125 0.921875 -1.828125 0.859375 -1.84375 L 0.796875 -1.84375 L 0.734375 -1.578125 L 0.765625 -1.546875 C 0.953125 -1.640625 1.046875 -1.65625 1.1875 -1.65625 C 1.59375 -1.65625 1.828125 -1.390625 1.828125 -0.9375 C 1.828125 -0.4375 1.53125 -0.109375 1.0625 -0.109375 C 0.84375 -0.109375 0.640625 -0.171875 0.484375 -0.3125 C 0.375 -0.421875 0.296875 -0.546875 0.203125 -0.8125 L 0.078125 -0.765625 C 0.171875 -0.453125 0.21875 -0.28125 0.25 -0.03125 C 0.515625 0.0625 0.734375 0.09375 0.921875 0.09375 C 1.3125 0.09375 1.765625 -0.125 2.046875 -0.453125 C 2.21875 -0.65625 2.296875 -0.875 2.296875 -1.109375 C 2.296875 -1.34375 2.203125 -1.5625 2.015625 -1.6875 C 1.890625 -1.78125 1.78125 -1.8125 1.53125 -1.859375 C 1.921875 -2.171875 2.078125 -2.390625 2.078125 -2.6875 C 2.078125 -3.125 1.703125 -3.421875 1.15625 -3.421875 C 0.8125 -3.421875 0.59375 -3.328125 0.359375 -3.09375 Z M 0.21875 -2.46875 "/>
</g>
<g id="glyph-0-4">
<path d="M 2.0625 -3.34375 L 1.890625 -3.421875 C 1.40625 -3.265625 1.203125 -3.171875 0.953125 -2.953125 C 0.4375 -2.515625 0.15625 -1.90625 0.15625 -1.234375 C 0.15625 -0.40625 0.5625 0.09375 1.203125 0.09375 C 1.84375 0.09375 2.328125 -0.40625 2.328125 -1.09375 C 2.328125 -1.65625 1.984375 -2.03125 1.453125 -2.03125 C 1.203125 -2.03125 1.0625 -1.96875 0.765625 -1.734375 C 0.703125 -1.6875 0.703125 -1.6875 0.65625 -1.640625 C 0.75 -2.546875 1.171875 -3.03125 2.0625 -3.296875 Z M 1.265625 -1.734375 C 1.640625 -1.734375 1.890625 -1.40625 1.890625 -0.921875 C 1.890625 -0.390625 1.640625 -0.0625 1.265625 -0.0625 C 0.84375 -0.0625 0.609375 -0.421875 0.609375 -1.09375 C 0.609375 -1.265625 0.625 -1.359375 0.6875 -1.453125 C 0.796875 -1.609375 1.03125 -1.734375 1.265625 -1.734375 Z M 1.265625 -1.734375 "/>
</g>
<g id="glyph-1-0">
<path d="M -3 -0.625 C -2.984375 -1.265625 -2.984375 -1.546875 -2.984375 -2.140625 L -3 -2.171875 C -3.09375 -2.15625 -3.140625 -2.15625 -3.203125 -2.15625 C -3.265625 -2.15625 -3.3125 -2.15625 -3.40625 -2.171875 L -3.421875 -2.140625 C -3.40625 -1.78125 -3.40625 -1.546875 -3.40625 -1.28125 C -3.40625 -1.015625 -3.40625 -0.796875 -3.421875 -0.421875 L -3.40625 -0.390625 C -3.09375 -0.390625 -2.875 -0.40625 -2.71875 -0.40625 C -2.296875 -0.40625 -1.8125 -0.390625 -1.59375 -0.375 L -1.5625 -0.46875 C -1.796875 -0.703125 -1.875 -0.84375 -1.875 -1.078125 C -1.875 -1.5625 -1.53125 -1.859375 -1 -1.859375 C -0.453125 -1.859375 -0.125 -1.546875 -0.125 -1 C -0.125 -0.734375 -0.21875 -0.484375 -0.34375 -0.40625 L -0.75 -0.1875 L -0.6875 -0.0625 C -0.390625 -0.171875 -0.234375 -0.234375 -0.015625 -0.3125 C 0.046875 -0.453125 0.09375 -0.640625 0.09375 -0.859375 C 0.09375 -1.1875 -0.046875 -1.546875 -0.28125 -1.8125 C -0.546875 -2.125 -0.890625 -2.28125 -1.25 -2.28125 C -1.8125 -2.28125 -2.21875 -1.875 -2.21875 -1.3125 C -2.21875 -1.078125 -2.15625 -0.890625 -1.96875 -0.59375 Z M -3 -0.625 "/>
</g>
<g id="glyph-1-1">
<path d="M -1.546875 -1.984375 C -1.78125 -1.984375 -1.984375 -2 -2.15625 -2.046875 C -2.28125 -1.859375 -2.328125 -1.671875 -2.328125 -1.46875 C -2.328125 -1.234375 -2.234375 -0.953125 -2.046875 -0.65625 C -1.828125 -0.3125 -1.484375 -0.125 -1.046875 -0.125 C -0.375 -0.125 0.09375 -0.59375 0.09375 -1.265625 C 0.09375 -1.53125 0 -1.890625 -0.0625 -1.953125 L -0.234375 -2.046875 L -0.296875 -2 C -0.203125 -1.8125 -0.15625 -1.65625 -0.15625 -1.484375 C -0.15625 -0.921875 -0.59375 -0.5625 -1.234375 -0.5625 C -1.78125 -0.5625 -2.078125 -0.8125 -2.078125 -1.265625 C -2.078125 -1.484375 -1.96875 -1.71875 -1.84375 -1.8125 L -1.546875 -1.84375 Z M -1.546875 -1.984375 "/>
</g>
<g id="glyph-1-2">
<path d="M -1.984375 -0.09375 L -1.984375 -0.265625 C -1.984375 -0.46875 -1.953125 -0.484375 -1.625 -0.484375 L -0.5 -0.484375 C -0.1875 -0.484375 -0.15625 -0.484375 -0.15625 -0.3125 L -0.140625 -0.078125 L 0.015625 -0.078125 C 0 -0.5625 0 -0.578125 0 -0.703125 C 0 -0.84375 0 -0.984375 0.015625 -1.296875 L -0.140625 -1.296875 L -0.15625 -1.09375 C -0.15625 -0.921875 -0.1875 -0.90625 -0.5 -0.90625 L -1.5625 -0.90625 C -1.78125 -0.90625 -2.03125 -1.234375 -2.03125 -1.53125 C -2.03125 -1.796875 -1.78125 -1.984375 -1.390625 -1.984375 L -0.5 -1.984375 C -0.1875 -1.984375 -0.15625 -1.96875 -0.15625 -1.796875 L -0.140625 -1.578125 L 0.015625 -1.578125 C 0 -2.078125 0 -2.078125 0 -2.203125 C 0 -2.328125 0 -2.328125 0.015625 -2.8125 L -0.140625 -2.8125 L -0.15625 -2.59375 C -0.15625 -2.421875 -0.1875 -2.40625 -0.5 -2.40625 L -1.5625 -2.40625 C -1.78125 -2.40625 -2.03125 -2.734375 -2.03125 -3.03125 C -2.03125 -3.296875 -1.78125 -3.484375 -1.390625 -3.484375 L 0.015625 -3.484375 C 0 -3.78125 0 -3.796875 0 -3.875 C 0 -3.9375 0 -3.9375 0.015625 -4.3125 L -0.140625 -4.3125 L -0.15625 -4.078125 C -0.15625 -3.921875 -0.1875 -3.90625 -0.5 -3.90625 L -1.53125 -3.90625 C -2.015625 -3.90625 -2.328125 -3.609375 -2.328125 -3.15625 C -2.328125 -2.984375 -2.28125 -2.84375 -2.203125 -2.75 L -1.875 -2.375 C -2.203125 -2.21875 -2.328125 -2 -2.328125 -1.671875 C -2.328125 -1.484375 -2.28125 -1.34375 -2.203125 -1.25 L -1.890625 -0.90625 L -2.3125 -0.90625 L -2.328125 -0.859375 C -2.21875 -0.609375 -2.15625 -0.359375 -2.125 -0.09375 Z M -1.984375 -0.09375 "/>
</g>
<g id="glyph-1-3">
<path d="M -2.46875 -0.21875 L -2.46875 -0.375 L -2.75 -0.453125 C -2.921875 -0.515625 -3.09375 -0.828125 -3.09375 -1.078125 C -3.09375 -1.40625 -2.828125 -1.671875 -2.515625 -1.671875 C -2.140625 -1.671875 -1.828125 -1.375 -1.828125 -1.03125 C -1.828125 -0.984375 -1.828125 -0.921875 -1.84375 -0.859375 L -1.84375 -0.796875 L -1.578125 -0.734375 L -1.546875 -0.765625 C -1.640625 -0.953125 -1.65625 -1.046875 -1.65625 -1.1875 C -1.65625 -1.59375 -1.390625 -1.828125 -0.9375 -1.828125 C -0.4375 -1.828125 -0.109375 -1.53125 -0.109375 -1.0625 C -0.109375 -0.84375 -0.171875 -0.640625 -0.3125 -0.484375 C -0.421875 -0.375 -0.546875 -0.296875 -0.8125 -0.203125 L -0.765625 -0.078125 C -0.453125 -0.171875 -0.28125 -0.21875 -0.03125 -0.25 C 0.0625 -0.515625 0.09375 -0.734375 0.09375 -0.921875 C 0.09375 -1.3125 -0.125 -1.765625 -0.453125 -2.046875 C -0.65625 -2.21875 -0.875 -2.296875 -1.109375 -2.296875 C -1.34375 -2.296875 -1.5625 -2.203125 -1.6875 -2.015625 C -1.78125 -1.890625 -1.8125 -1.78125 -1.859375 -1.53125 C -2.171875 -1.921875 -2.390625 -2.078125 -2.6875 -2.078125 C -3.125 -2.078125 -3.421875 -1.703125 -3.421875 -1.15625 C -3.421875 -0.8125 -3.328125 -0.59375 -3.09375 -0.359375 Z M -2.46875 -0.21875 "/>
</g>
<g id="glyph-1-4">
<path d="M -1.71875 -0.828125 C -1.625 -0.625 -1.5625 -0.546875 -1.453125 -0.4375 C -1.265625 -0.25 -1.046875 -0.15625 -0.796875 -0.15625 C -0.28125 -0.15625 0.09375 -0.5625 0.09375 -1.125 C 0.09375 -1.765625 -0.40625 -2.3125 -1.03125 -2.3125 C -1.421875 -2.3125 -1.640625 -2.125 -1.890625 -1.5625 C -2.203125 -2 -2.40625 -2.171875 -2.703125 -2.171875 C -3.140625 -2.171875 -3.421875 -1.8125 -3.421875 -1.28125 C -3.421875 -0.703125 -3.046875 -0.265625 -2.53125 -0.265625 C -2.1875 -0.265625 -2 -0.390625 -1.71875 -0.828125 Z M -1.46875 -1.40625 C -1.328125 -1.71875 -1.078125 -1.90625 -0.8125 -1.90625 C -0.390625 -1.90625 -0.0625 -1.59375 -0.0625 -1.203125 C -0.0625 -0.78125 -0.375 -0.5 -0.828125 -0.5 C -1.1875 -0.5 -1.421875 -0.640625 -1.640625 -1.015625 Z M -2.109375 -1.109375 C -2.25 -0.796875 -2.453125 -0.640625 -2.703125 -0.640625 C -3.03125 -0.640625 -3.25 -0.875 -3.25 -1.234375 C -3.25 -1.59375 -3.015625 -1.828125 -2.65625 -1.828125 C -2.375 -1.828125 -2.171875 -1.703125 -1.96875 -1.375 Z M -2.109375 -1.109375 "/>
</g>
</g>
</defs>
<path fill="none" stroke-width="0.79701" stroke-linecap="butt" stroke-linejoin="miter" stroke="rgb(0%, 0%, 0%)" stroke-opacity="1" stroke-miterlimit="10" d="M 0.00127145 0.00190903 L 81.641551 0.00190903 L 81.641551 45.356313 L 54.428125 45.356313 L 54.428125 72.56974 L 0.00127145 72.56974 Z M 0.00127145 0.00190903 " transform="matrix(0.99632, 0, 0, -0.99632, 14.393264, 85.783152)"/>
<g fill="rgb(0%, 0%, 0%)" fill-opacity="1">
<use xlink:href="#glyph-0-0" x="49.908087" y="92.872965"/>
</g>
<g fill="rgb(0%, 0%, 0%)" fill-opacity="1">
<use xlink:href="#glyph-0-1" x="53.630314" y="92.872965"/>
<use xlink:href="#glyph-0-2" x="55.833872" y="92.872965"/>
</g>
<g fill="rgb(0%, 0%, 0%)" fill-opacity="1">
<use xlink:href="#glyph-1-0" x="102.82065" y="68.343567"/>
</g>
<g fill="rgb(0%, 0%, 0%)" fill-opacity="1">
<use xlink:href="#glyph-1-1" x="102.82065" y="64.62134"/>
<use xlink:href="#glyph-1-2" x="102.82065" y="62.417782"/>
</g>
<g fill="rgb(0%, 0%, 0%)" fill-opacity="1">
<use xlink:href="#glyph-0-3" x="77.020943" y="45.876551"/>
</g>
<g fill="rgb(0%, 0%, 0%)" fill-opacity="1">
<use xlink:href="#glyph-0-1" x="80.74317" y="45.876551"/>
<use xlink:href="#glyph-0-2" x="82.946728" y="45.876551"/>
</g>
<g fill="rgb(0%, 0%, 0%)" fill-opacity="1">
<use xlink:href="#glyph-1-3" x="64.86285" y="32.193092"/>
</g>
<g fill="rgb(0%, 0%, 0%)" fill-opacity="1">
<use xlink:href="#glyph-1-1" x="64.86285" y="28.470865"/>
<use xlink:href="#glyph-1-2" x="64.86285" y="26.267307"/>
</g>
<g fill="rgb(0%, 0%, 0%)" fill-opacity="1">
<use xlink:href="#glyph-0-4" x="36.352157" y="9.726076"/>
</g>
<g fill="rgb(0%, 0%, 0%)" fill-opacity="1">
<use xlink:href="#glyph-0-1" x="40.074384" y="9.726076"/>
<use xlink:href="#glyph-0-2" x="42.277942" y="9.726076"/>
</g>
<g fill="rgb(0%, 0%, 0%)" fill-opacity="1">
<use xlink:href="#glyph-1-4" x="9.73248" y="54.78664"/>
</g>
<g fill="rgb(0%, 0%, 0%)" fill-opacity="1">
<use xlink:href="#glyph-1-1" x="9.73248" y="51.064414"/>
<use xlink:href="#glyph-1-2" x="9.73248" y="48.860856"/>
</g>
</svg>
